<svg width="20" height="20" viewBox="0 0 20 20" fill="none" xmlns="http://www.w3.org/2000/svg">
<path d="M9.98058 19.9978C4.47237 20.1133 0.058127 15.6675 0.00054986 10.1247C-0.0570272 4.40877 4.41479 0.0977302 9.82704 0.00150159C15.5272 -0.094727 19.9414 4.44726 19.999 9.83606C20.0758 15.4558 15.7575 20.094 9.98058 19.9978ZM8.59873 13.1078C8.59873 13.3003 8.59873 13.4927 8.59873 13.6852C8.59873 14.1856 8.57954 14.686 8.59873 15.1671C8.59873 15.5328 8.73307 15.706 9.04015 15.7445C9.50077 15.8022 9.96139 15.86 10.422 15.86C10.9978 15.86 11.2089 15.5905 11.1897 15.0132C11.1705 14.1086 11.1321 13.2233 11.1129 12.3188C11.1129 11.9146 11.0937 11.5104 11.0937 11.1255C11.0937 10.8176 11.2089 10.7214 11.516 10.7214C11.6695 10.7214 11.8422 10.7406 11.9958 10.7406C12.5715 10.7406 12.7443 10.6059 12.8019 10.0285C12.8402 9.70134 12.8786 9.35492 12.9362 9.02774C13.013 8.48886 12.8019 8.23867 12.2645 8.23867C11.9958 8.23867 11.7271 8.27716 11.4584 8.2964C11.2857 8.2964 11.1129 8.23867 11.1129 8.04621C11.1129 7.69979 11.1129 7.33412 11.1705 7.00694C11.2089 6.7375 11.42 6.60278 11.6887 6.58354C11.9766 6.56429 12.2645 6.58354 12.5524 6.56429C12.9746 6.5258 13.1473 6.35259 13.1473 5.90994C13.1473 5.58276 13.1473 5.23634 13.1473 4.90916C13.1665 4.40877 12.9938 4.17782 12.4948 4.17782C11.9766 4.17782 11.4776 4.19707 10.9594 4.25481C10.4796 4.31254 10.019 4.40877 9.61592 4.73595C9.00177 5.23634 8.65631 5.87144 8.61792 6.67976C8.59873 7.04543 8.59873 7.4111 8.59873 7.77677C8.59873 8.27716 8.56034 8.31565 8.04215 8.27716C7.85023 8.25791 7.6583 8.23867 7.46638 8.25791C7.06334 8.2964 6.89061 8.46962 6.89061 8.87378C6.87142 9.25869 6.87141 9.64361 6.87141 10.0285C6.87141 10.4712 7.10172 10.7021 7.54315 10.7214C7.69669 10.7214 7.86942 10.7021 8.02296 10.7021C8.57954 10.6829 8.59873 10.7021 8.59873 11.241C8.59873 11.8954 8.59873 12.492 8.59873 13.1078Z" fill="black"/>
</svg>
