<svg width="20" height="20" viewBox="0 0 20 20" fill="none" xmlns="http://www.w3.org/2000/svg">
<path d="M19.9537 9.92387C20.0497 15.4303 15.6561 19.9582 10.1113 19.9965C4.37467 20.0541 -0.0381237 15.4686 0.000248346 10.039C0.0386204 4.43666 4.35548 0.158174 9.78513 0.00468552C15.3107 -0.167989 20.0497 4.45585 19.9537 9.92387ZM4.52816 10.0006C4.50897 10.0006 4.48978 10.0006 4.47059 10.0006C4.48978 10.8256 4.48979 11.6698 4.54734 12.4948C4.68165 14.2599 5.81362 15.3919 7.57874 15.4686C9.20955 15.5262 10.8596 15.4878 12.5096 15.4686C13.795 15.4495 15.1764 14.3558 15.3491 12.8785C15.3683 12.6483 15.4258 12.3989 15.4258 12.1686C15.4258 10.7872 15.445 9.38666 15.4258 8.00527C15.4066 7.21864 15.2148 6.47038 14.6968 5.81806C14.0828 5.05062 13.2386 4.72445 12.2985 4.70527C10.7444 4.66689 9.17117 4.64771 7.59792 4.68608C6.98396 4.70527 6.37002 4.87794 5.85199 5.24248C4.95025 5.85643 4.56653 6.75817 4.50897 7.81341C4.50897 8.52329 4.52816 9.25236 4.52816 10.0006Z" fill="black"/>
<path d="M9.91944 14.0872C9.13281 14.0872 8.36536 14.1064 7.57874 14.0872C6.77292 14.068 6.17816 13.5308 6.02467 12.725C5.96711 12.4372 5.94793 12.1494 5.92874 11.8616C5.92874 10.557 5.92874 9.25234 5.94792 7.9285C5.94792 7.54478 6.04386 7.18025 6.27409 6.85408C6.54269 6.47036 6.86886 6.25932 7.32932 6.18257C7.98165 6.06746 8.61478 5.97153 9.26711 6.04827C9.88106 6.10583 10.5142 6.04827 11.1282 6.06746C11.627 6.08664 12.1066 6.10583 12.6055 6.16339C13.277 6.24013 13.8526 6.77734 13.9677 7.44885C14.0061 7.6599 14.0252 7.89013 14.0252 8.12036C14.0252 9.42501 14.0252 10.7297 14.0252 12.0535C14.0252 12.514 13.9485 12.9744 13.6799 13.3773C13.3537 13.8378 12.9316 14.1256 12.3561 14.1256C11.5503 14.1064 10.7444 14.0872 9.91944 14.0872ZM12.9125 10.0773C12.9892 8.69595 11.4543 7.14188 10.2648 7.14188C8.44211 7.14188 7.09909 8.33141 7.0799 10.0006C7.06072 11.6698 8.26943 12.8977 9.99617 12.9552C11.4927 13.032 12.9316 11.5355 12.9125 10.0773ZM12.759 6.47036C12.3177 6.47036 11.934 6.87327 11.9532 7.31455C11.9723 7.69827 12.3944 8.10118 12.7782 8.12036C13.2386 8.12036 13.5456 7.81339 13.5456 7.33374C13.5264 6.81571 13.2194 6.47036 12.759 6.47036Z" fill="black"/>
<path d="M9.99619 8.56162C10.9363 8.56162 11.4735 9.11802 11.4735 10.0581C11.4735 10.9791 10.8404 11.6506 9.97701 11.6314C9.07526 11.6122 8.42294 10.9407 8.44212 10.0198C8.44212 9.21395 9.11363 8.50407 9.99619 8.56162Z" fill="black"/>
</svg>
