<svg width="21" height="21" viewBox="0 0 21 21" fill="none" xmlns="http://www.w3.org/2000/svg">
<path d="M0.00332225 10.4554C-0.140356 4.8314 4.39578 0.233685 9.81451 0.00790492C15.6848 -0.217875 20.5699 4.42089 20.5288 10.3322C20.4878 15.9152 16.1774 20.4102 10.4713 20.5539C4.74471 20.7181 0.0648987 16.1204 0.00332225 10.4554ZM11.3744 15.3404C11.3744 14.6631 11.3744 14.0473 11.3744 13.4111C11.3744 12.5695 11.3539 11.728 11.4155 10.8864C11.4565 10.2706 12.0313 9.75751 12.647 9.73699C13.3244 9.71646 13.7554 10.0654 13.8991 10.7633C13.9401 10.989 13.9607 11.2148 13.9607 11.4201C13.9607 12.6106 13.9607 13.7805 13.9607 14.971C13.9607 15.0941 13.9812 15.2173 13.9812 15.3404C14.8227 15.3404 15.6027 15.3404 16.4237 15.3404C16.4237 14.7452 16.4237 14.191 16.4237 13.6163C16.4032 12.4874 16.4442 11.3585 16.3416 10.2501C16.1979 8.79282 15.1717 7.84864 13.7349 7.80759C12.7907 7.76654 11.9902 8.11547 11.395 9.0186C11.395 8.62861 11.395 8.32073 11.395 8.01285C10.5534 8.01285 9.75293 8.01285 8.93191 8.01285C8.93191 10.4759 8.93191 12.9184 8.93191 15.3815C9.7324 15.3404 10.5124 15.3404 11.3744 15.3404ZM7.51565 7.99232C6.69463 7.99232 5.89414 7.99232 5.09364 7.99232C5.09364 10.4554 5.09364 12.8774 5.09364 15.3404C5.91466 15.3404 6.69463 15.3404 7.51565 15.3404C7.51565 12.8774 7.51565 10.4349 7.51565 7.99232ZM4.94997 5.65241C4.92944 6.37081 5.52468 6.94552 6.30465 6.96605C7.08462 6.98657 7.70038 6.43238 7.72091 5.71399C7.74143 4.97507 7.18724 4.42089 6.38675 4.37983C5.58626 4.35931 4.97049 4.9135 4.94997 5.65241Z" fill="black"/>
</svg>
