<svg width="6" height="10" viewBox="0 0 6 10" fill="none" xmlns="http://www.w3.org/2000/svg">
<path d="M5.74123 2.87796C5.74123 2.96456 5.74123 3.05981 5.74123 3.14641C5.74123 3.20702 5.73257 3.25898 5.72391 3.3196C5.71525 3.37155 5.70659 3.43217 5.69794 3.48413C5.68062 3.5534 5.6633 3.63134 5.63732 3.70061C5.60268 3.80453 5.5767 3.90844 5.5334 4.0037C5.49011 4.11627 5.44681 4.22018 5.39485 4.3241C5.33424 4.44533 5.27362 4.56656 5.20434 4.67913C5.15239 4.77439 5.10043 4.86098 5.03981 4.95624C4.9792 5.06015 4.90992 5.15541 4.84931 5.25066C4.82333 5.29396 4.79735 5.33725 4.77137 5.37189C4.73673 5.42385 4.71075 5.46715 4.67612 5.5191C4.62416 5.58838 4.58086 5.66631 4.52891 5.73559C4.47695 5.81352 4.42499 5.89146 4.37303 5.9694C4.28644 6.09929 4.2085 6.22918 4.12191 6.35907C4.06129 6.45433 4.00068 6.54958 3.94006 6.63618C3.90542 6.68813 3.87079 6.74009 3.83615 6.79205C3.79285 6.85266 3.75821 6.91328 3.71492 6.9739C3.6543 7.06915 3.59368 7.15574 3.53307 7.251C3.47245 7.33759 3.42049 7.42419 3.35988 7.51078C3.32524 7.56274 3.2906 7.6147 3.25596 7.66665C3.21267 7.72727 3.17803 7.78789 3.13473 7.8485C3.06545 7.95242 3.00484 8.04767 2.94422 8.15158C2.9269 8.17756 2.90958 8.20354 2.89226 8.22952C2.87495 8.24684 2.86629 8.24684 2.84897 8.22952C2.84031 8.22086 2.84031 8.2122 2.83165 8.2122C2.78835 8.14292 2.74505 8.08231 2.70176 8.01303C2.6498 7.92644 2.58918 7.83984 2.53723 7.75325C2.49393 7.68397 2.45063 7.6147 2.40733 7.54542C2.3727 7.49346 2.33806 7.43285 2.29476 7.38089C2.22549 7.26832 2.14755 7.1644 2.07827 7.05183C2.0523 7.01719 2.03498 6.98255 2.009 6.93926C1.9657 6.86998 1.91374 6.80071 1.87045 6.72277C1.80117 6.6102 1.72324 6.49762 1.65396 6.38505C1.61066 6.32443 1.57602 6.26382 1.53273 6.2032C1.48943 6.14259 1.45479 6.08197 1.41149 6.02135C1.37686 5.96074 1.33356 5.90878 1.29892 5.84816C1.25562 5.77889 1.20367 5.70961 1.16037 5.64034C1.11707 5.57972 1.07377 5.51044 1.03048 5.44983C0.99584 5.39787 0.961202 5.35457 0.935223 5.30262C0.909245 5.26798 0.891926 5.23334 0.865948 5.1987C0.83131 5.13809 0.788012 5.07747 0.753374 5.01685C0.718736 4.9649 0.684099 4.91294 0.65812 4.86098C0.614823 4.78305 0.562866 4.70511 0.519569 4.61852C0.458952 4.50594 0.398336 4.39337 0.33772 4.27214C0.277103 4.15091 0.225146 4.02101 0.181849 3.89112C0.138552 3.77855 0.103914 3.65732 0.0779353 3.54474C0.0606163 3.48413 0.0519569 3.43217 0.0432974 3.37155C0.0259784 3.28496 0.017319 3.19836 0.00865948 3.11177C0.00865948 3.09445 0 3.05981 0 3.01652C0 2.92992 0 2.85198 0 2.76539C0 2.70477 0.00865948 2.6355 0.017319 2.57488C0.0259784 2.51427 0.0346379 2.45365 0.0432974 2.40169C0.0606163 2.29778 0.0865947 2.20252 0.112573 2.10727C0.138552 2.00336 0.181849 1.89944 0.216487 1.80419C0.242465 1.73491 0.285763 1.66564 0.311741 1.5877C0.355038 1.49245 0.415655 1.40585 0.467612 1.31926C0.510909 1.24998 0.554206 1.18937 0.606163 1.12875C0.701418 0.998857 0.805331 0.886284 0.926564 0.78237C1.0045 0.713095 1.08243 0.652478 1.16037 0.591862C1.2383 0.531246 1.31624 0.479289 1.40284 0.427332C1.48943 0.375375 1.57602 0.332078 1.66262 0.28878C1.75787 0.245483 1.85313 0.202185 1.95704 0.167548C2.12157 0.115591 2.2861 0.0722934 2.45929 0.0463149C2.64114 0.00301756 2.83165 -0.00564191 3.02216 0.00301756C3.14339 0.011677 3.27328 0.028996 3.39451 0.0463149C3.43781 0.0549744 3.47245 0.0636339 3.51575 0.0722934C3.611 0.0982718 3.70626 0.115591 3.79285 0.150229C3.89676 0.184867 4.00068 0.228164 4.09593 0.271461C4.15655 0.29744 4.21716 0.332078 4.26912 0.366715C4.32974 0.401353 4.39035 0.435991 4.45097 0.479289C4.51159 0.522586 4.5722 0.565883 4.62416 0.609181C4.71941 0.678457 4.80601 0.756392 4.88394 0.834327C4.9792 0.929581 5.07445 1.0335 5.16105 1.14607C5.22166 1.224 5.27362 1.30194 5.32558 1.37987C5.38619 1.48379 5.44681 1.5877 5.49877 1.70027C5.54206 1.78687 5.5767 1.88212 5.60268 1.97738C5.64598 2.11593 5.68062 2.25448 5.70659 2.40169C5.72391 2.51427 5.73257 2.6355 5.73257 2.74807C5.74123 2.79137 5.74123 2.83467 5.74123 2.87796ZM2.90958 4.86098C2.99618 4.86098 3.10875 4.86098 3.22132 4.835C3.27328 4.82635 3.32524 4.81769 3.38585 4.80037C3.45513 4.78305 3.52441 4.75707 3.59368 4.73109C3.68028 4.70511 3.75821 4.66182 3.83615 4.61852C3.8881 4.59254 3.94006 4.5579 3.99202 4.52326C4.04397 4.48863 4.10459 4.44533 4.15655 4.40203C4.19985 4.36739 4.24314 4.3241 4.28644 4.2808C4.34706 4.22018 4.40767 4.15091 4.45963 4.08163C4.52025 4.0037 4.5722 3.9171 4.62416 3.83051C4.67612 3.73525 4.72807 3.63134 4.76271 3.52742C4.78869 3.44949 4.81467 3.37155 4.83199 3.29362C4.84065 3.25898 4.84065 3.21568 4.84931 3.18105C4.86663 3.10311 4.86662 3.02517 4.87528 2.94724C4.87528 2.81735 4.86663 2.68745 4.84931 2.55756C4.83199 2.44499 4.80601 2.33242 4.77137 2.2285C4.74539 2.15923 4.71941 2.08995 4.69344 2.02933C4.63282 1.9081 4.56354 1.78687 4.47695 1.6743C4.32974 1.48379 4.15655 1.31926 3.94872 1.19803C3.89676 1.16339 3.84481 1.13741 3.79285 1.11143C3.6976 1.05947 3.59368 1.02484 3.48977 0.990198C3.3772 0.95556 3.25596 0.929581 3.13473 0.912262C3.00484 0.894944 2.86629 0.894944 2.73639 0.903603C2.62382 0.912262 2.51991 0.929581 2.40733 0.95556C2.32074 0.972879 2.23414 1.00752 2.14755 1.04215C2.02632 1.08545 1.91374 1.14607 1.80983 1.224C1.74055 1.2673 1.67128 1.31926 1.61066 1.37987C1.55005 1.43183 1.48943 1.48379 1.43747 1.5444C1.3682 1.62234 1.30758 1.70027 1.24696 1.78687C1.13439 1.96872 1.03914 2.15923 0.98718 2.36705C0.943883 2.51427 0.926564 2.67014 0.926564 2.82601C0.926564 2.94724 0.935223 3.06847 0.952542 3.1897C0.961202 3.25032 0.969861 3.30228 0.98718 3.36289C1.0045 3.43217 1.02182 3.49279 1.0478 3.56206C1.06512 3.61402 1.09109 3.65732 1.10841 3.70927C1.14305 3.78721 1.17769 3.85648 1.22099 3.92576C1.27294 4.01235 1.33356 4.09029 1.39418 4.16823C1.44613 4.22884 1.49809 4.28946 1.55871 4.34141C1.66262 4.43667 1.77519 4.5146 1.89643 4.58388C1.97436 4.62718 2.0523 4.67048 2.13023 4.69645C2.2428 4.73975 2.36404 4.78305 2.48527 4.80903C2.6065 4.85232 2.74505 4.86098 2.90958 4.86098Z" fill="white"/>
<path d="M1.27294 8.18624C1.26428 8.1949 1.24696 8.20356 1.23831 8.21222C1.22099 8.22954 1.21233 8.2382 1.20367 8.25552C1.18635 8.29016 1.18635 8.31614 1.21233 8.35077C1.22965 8.37675 1.26428 8.40273 1.29026 8.42005C1.3682 8.46335 1.45479 8.48933 1.54139 8.5153C1.67994 8.54994 1.81849 8.56726 1.95704 8.59324C2.02632 8.6019 2.09559 8.6019 2.16487 8.61056C2.23415 8.61922 2.31208 8.62788 2.38136 8.62788C2.47661 8.63654 2.57186 8.63654 2.65846 8.63654C2.76237 8.63654 2.85763 8.6452 2.96154 8.63654C3.08277 8.63654 3.20401 8.63654 3.32524 8.62788C3.42049 8.61922 3.50709 8.61056 3.60234 8.6019C3.67162 8.59324 3.74955 8.59324 3.81883 8.58458C3.9314 8.56726 4.04398 8.54994 4.15655 8.52396C4.24314 8.50664 4.32974 8.48067 4.40767 8.44603C4.43365 8.42871 4.45963 8.42005 4.49427 8.40273C4.52025 8.39407 4.53757 8.36809 4.54622 8.35077C4.5722 8.30748 4.56354 8.25552 4.52025 8.22954C4.51159 8.22088 4.49427 8.21222 4.48561 8.20356C4.47695 8.1949 4.47695 8.1949 4.46829 8.18624C4.48561 8.17758 4.51159 8.17758 4.52891 8.18624C4.56354 8.1949 4.59818 8.20356 4.62416 8.21222C4.68478 8.22954 4.73673 8.24686 4.79735 8.26418C4.86663 8.2815 4.9359 8.31614 5.00518 8.35077C5.05713 8.37675 5.10043 8.41139 5.13507 8.45469C5.17837 8.50664 5.17837 8.5586 5.14373 8.61922C5.11775 8.66251 5.07445 8.69715 5.0225 8.72313C4.91858 8.78375 4.81467 8.81839 4.7021 8.86168C4.63282 8.88766 4.56354 8.89632 4.49427 8.91364C4.41633 8.93096 4.32974 8.94828 4.2518 8.95694C4.14789 8.97426 4.04398 8.99157 3.94872 9.00023C3.87945 9.00889 3.81017 9.01755 3.74089 9.01755C3.3339 9.04353 2.91824 9.02621 2.51125 9.03487C2.40733 9.03487 2.30342 9.03487 2.19951 9.03487C2.11291 9.03487 2.01766 9.02621 1.93106 9.01755C1.87045 9.00889 1.80983 9.00889 1.74921 9.00023C1.71458 9.00023 1.67994 8.99157 1.65396 8.98291C1.57602 8.97426 1.50675 8.9656 1.42881 8.94828C1.3682 8.93962 1.29892 8.9223 1.23831 8.90498C1.21233 8.89632 1.17769 8.88766 1.15171 8.88766C1.09975 8.87034 1.03914 8.85302 0.987181 8.84436C0.961202 8.8357 0.935224 8.82704 0.909245 8.81839C0.813991 8.79241 0.736056 8.74045 0.65812 8.68849C0.640802 8.67117 0.623483 8.65385 0.606164 8.63654C0.562866 8.58458 0.571526 8.52396 0.614823 8.47201C0.65812 8.41139 0.727396 8.37675 0.788013 8.34211C0.874607 8.29882 0.969862 8.27284 1.05646 8.2382C1.10841 8.22088 1.16037 8.21222 1.22099 8.1949C1.23831 8.17758 1.25562 8.17758 1.27294 8.18624Z" fill="white"/>
<path d="M4.50292 2.86931C4.50292 3.02518 4.4856 3.16373 4.45096 3.29363C4.41633 3.41486 4.37303 3.52743 4.32107 3.63135C4.2518 3.76124 4.1652 3.89113 4.06129 3.99504C3.94871 4.11628 3.82748 4.21153 3.68893 4.28947C3.59367 4.35008 3.48976 4.39338 3.37719 4.42802C3.32523 4.44534 3.27327 4.454 3.22132 4.47131C3.1174 4.49729 3.01349 4.50595 2.90958 4.51461C2.8403 4.51461 2.77102 4.50595 2.71041 4.50595C2.65845 4.49729 2.61515 4.48863 2.5632 4.47997C2.49392 4.47131 2.42465 4.44534 2.35537 4.41936C2.32073 4.40204 2.27743 4.39338 2.2428 4.37606C2.13888 4.33276 2.04363 4.27215 1.94837 4.21153C1.85312 4.14225 1.76653 4.07298 1.68859 3.98638C1.64529 3.93443 1.602 3.88247 1.56736 3.83051C1.52406 3.7699 1.48076 3.70062 1.44612 3.64001C1.40283 3.55341 1.36819 3.46682 1.34221 3.38022C1.33355 3.34558 1.31623 3.30229 1.30757 3.26765C1.29025 3.18971 1.28159 3.11178 1.27294 3.03384C1.26428 2.92127 1.27294 2.80004 1.28159 2.68746C1.29025 2.60953 1.30757 2.54025 1.32489 2.47098C1.35087 2.38438 1.37685 2.29779 1.42015 2.21985C1.44612 2.17655 1.46344 2.1246 1.49808 2.0813C1.58468 1.93409 1.69725 1.79554 1.8358 1.68296C1.96569 1.57039 2.10424 1.4838 2.26877 1.41452C2.36403 1.37122 2.46794 1.34524 2.57186 1.31927C2.71041 1.29329 2.84896 1.27597 2.98751 1.29329C3.13472 1.30195 3.27327 1.32793 3.41183 1.37122C3.49842 1.3972 3.57636 1.43184 3.64563 1.47514C3.73223 1.51843 3.81882 1.57905 3.89676 1.63967C3.99201 1.7176 4.08726 1.8042 4.1652 1.90811C4.21716 1.97739 4.26045 2.04666 4.30375 2.11594C4.36437 2.21985 4.40767 2.33242 4.4423 2.445C4.47694 2.55757 4.49426 2.67014 4.50292 2.78272C4.50292 2.80004 4.50292 2.83467 4.50292 2.86931ZM3.204 1.95141C3.18668 1.95141 3.17802 1.94275 3.16936 1.93409C3.13472 1.89945 3.10008 1.87347 3.07411 1.83883C3.02215 1.78688 2.97019 1.74358 2.91824 1.69162C2.89226 1.66564 2.86628 1.66564 2.8403 1.69162C2.81432 1.70894 2.797 1.73492 2.77102 1.75224C2.66711 1.84749 2.57186 1.94275 2.46794 2.02934C2.40733 2.08996 2.33805 2.15058 2.27743 2.21119C2.17352 2.31511 2.06095 2.41036 1.95703 2.51427C1.88776 2.57489 1.82714 2.63551 1.75787 2.69612C1.74921 2.70478 1.73189 2.71344 1.72323 2.73076C1.71457 2.73942 1.70591 2.74808 1.71457 2.7654C1.72323 2.78272 1.73189 2.78272 1.74055 2.78272C1.75787 2.78272 1.76653 2.78272 1.78384 2.78272C1.85312 2.78272 1.93106 2.78272 2.00033 2.78272C2.00899 2.78272 2.01765 2.78272 2.02631 2.78272C2.06095 2.78272 2.06961 2.79138 2.06961 2.82601C2.06961 2.85199 2.06961 2.87797 2.06961 2.89529C2.06961 3.19837 2.06961 3.49279 2.06961 3.79588C2.06961 3.80454 2.06961 3.82185 2.06961 3.83051C2.06961 3.84783 2.07827 3.85649 2.09559 3.86515C2.1129 3.86515 2.12156 3.86515 2.13888 3.86515C2.28609 3.86515 2.4333 3.86515 2.58052 3.86515C2.58918 3.86515 2.58918 3.86515 2.59783 3.86515C2.63247 3.86515 2.64979 3.84783 2.64979 3.81319C2.64979 3.80454 2.64979 3.80454 2.64979 3.79588C2.64979 3.57073 2.64979 3.34558 2.64979 3.11178C2.64979 3.0858 2.64979 3.06848 2.64979 3.0425C2.64979 3.02518 2.65845 3.00786 2.68443 3.00786C2.69309 3.00786 2.71041 3.00786 2.72773 3.00786C2.8403 3.00786 2.95287 3.00786 3.06545 3.00786C3.07411 3.00786 3.07411 3.00786 3.08277 3.00786C3.10874 3.00786 3.1174 3.01652 3.1174 3.05116C3.1174 3.0858 3.1174 3.11178 3.1174 3.14641C3.1174 3.29363 3.1174 3.43218 3.1174 3.57939C3.1174 3.63135 3.1174 3.6833 3.1174 3.73526C3.1174 3.7699 3.1174 3.79588 3.1174 3.83051C3.1174 3.85649 3.12606 3.86515 3.15204 3.87381C3.1607 3.87381 3.17802 3.87381 3.18668 3.87381C3.33389 3.87381 3.4811 3.87381 3.61965 3.87381C3.62831 3.87381 3.63697 3.87381 3.65429 3.87381C3.68027 3.87381 3.69759 3.85649 3.69759 3.83051C3.69759 3.82185 3.69759 3.81319 3.69759 3.80454C3.69759 3.71794 3.69759 3.63135 3.69759 3.54475C3.69759 3.3196 3.69759 3.09446 3.69759 2.86065C3.69759 2.85199 3.69759 2.84333 3.69759 2.83467C3.69759 2.8087 3.70625 2.80004 3.74089 2.79138C3.7582 2.79138 3.78418 2.78272 3.8015 2.78272C3.86212 2.78272 3.93139 2.78272 3.99201 2.78272C4.00067 2.78272 4.01799 2.78272 4.02665 2.78272C4.04397 2.78272 4.05263 2.7654 4.04397 2.74808C4.04397 2.73942 4.03531 2.73076 4.02665 2.7221C4.00933 2.70478 4.00067 2.69612 3.98335 2.68746C3.92273 2.62685 3.86212 2.57489 3.8015 2.51427C3.7582 2.47098 3.71491 2.42768 3.66295 2.38438C3.61965 2.34108 3.57636 2.29779 3.53306 2.26315C3.50708 2.23717 3.49842 2.21119 3.49842 2.17655C3.49842 2.10728 3.49842 2.04666 3.49842 1.97739C3.49842 1.92543 3.49842 1.88213 3.49842 1.83017C3.49842 1.79554 3.4811 1.78688 3.45512 1.77822C3.39451 1.77822 3.32523 1.77822 3.26461 1.77822C3.22998 1.77822 3.22132 1.79554 3.22132 1.83017C3.22132 1.85615 3.22132 1.88213 3.22132 1.90811C3.21266 1.92543 3.21266 1.93409 3.204 1.95141Z" fill="white"/>
</svg>
